<?xml version="1.0" encoding="utf-8"?>
<!-- Generator: Adobe Illustrator 22.0.1, SVG Export Plug-In . SVG Version: 6.00 Build 0)  -->
<svg version="1.1" id="Capa_1" xmlns="http://www.w3.org/2000/svg" xmlns:xlink="http://www.w3.org/1999/xlink" x="0px" y="0px"
	 viewBox="0 0 1920 1080" style="enable-background:new 0 0 1920 1080;color:#FFC06E;" xml:space="preserve">
<g>
	<g>
		<path d="M1.2,765.2c51.6-32.6,114.5-44.4,174.7-34.5c62.9,10.4,116.1,48.7,176,68.6c62.3,20.7,131.6,13.5,193.9-3.5
			c65.5-17.8,128.1-46.4,191-71.6c15.2-6.1,30.5-11.9,46-17c14.3-4.7,30.4-7.1,43.9-13.2c7.4-3.4,16.5-3.9,24.5-5.6
			c8.6-1.9,17.2-3.9,25.9-5.3c17.9-3,36.5-4.3,54.7-3.6c68.4,2.6,131.1,28.2,192.4,56.4c16,7.3,31.9,14.8,47.8,22.4
			c14.2,6.8,29.4,10.7,44,16.6c15.4,6.2,31.1,16.1,47.3,19.9c16.5,3.9,32.6,9.4,49,13.6c63.2,16.2,130.6,18.8,194.9,7.7
			c16.4-2.8,33.3-6.2,49.1-11.7c14.4-5,29.1-8.8,43.7-13.4c16.2-5,32.1-10.9,47.7-17.4c15.1-6.3,30.4-11.6,45.5-17.6
			c62.6-25.1,122.2-57.2,184.7-82.5c13.6-5.5,27.4-12.4,41.4-16.6c1.8-0.6,1.1-3.5-0.8-2.9c-14.2,4.3-27.8,11.1-41.4,16.6
			c-15.3,6.2-30.1,12.8-45.1,19.9c-31.3,14.7-62.8,28.6-94.2,42.8c-30.5,13.8-61.8,25.3-92.6,38.1c-29.8,12.4-61,20.7-91.6,30.6
			c-65.1,21.1-140,22.8-207,10.8c-17.3-3.1-34.4-7.2-51.2-12.2c-17.1-5.1-34.3-9.2-50.6-16.5c-14.2-6.3-28.5-12.6-43.2-17.8
			c-18-6.4-34.9-13.8-52.3-21.9c-57.6-26.9-117.1-56.2-181-64.5c-32.5-4.2-65.2-4.9-97.5,1.2c-31.5,6-62,14-92.5,24.3
			c-127.4,43-256.4,124.9-396.4,98.6c-64.5-12.1-117.5-53.6-180-70.6c-54.7-14.9-114.5-11.5-166.8,10.5
			c-12.5,5.2-24.4,11.5-35.8,18.8C-2,763.6-0.5,766.2,1.2,765.2L1.2,765.2z"/>
	</g>
</g>
<g>
	<g>
		<path d="M2.5,807.7c15-9.8,30.1-19.5,47-25.3c17.4-5.9,33.8-13.5,51.6-18.4c34.5-9.4,70.3-13.9,106-15.2
			c35-1.2,71.7-1.1,106.3,4.4c34.3,5.4,63.3,22.3,87.7,46.5c21.6,21.3,43.7,44.7,70.6,59.4c29.4,16,65,24.5,97.9,29
			c67.9,9.3,137.8,3.1,199.6-27.9c107.8-54.1,194.5-169.9,324.5-169.1c72.2,0.4,128.5,44.4,190.2,75.1
			c60.1,29.9,124.2,51.2,190.8,60.4c69.1,9.5,139.8,5.4,207.7-10.5c32.9-7.7,65.2-18.2,96.3-31.4c33.9-14.4,65.1-32.9,96.8-51.5
			c14.7-8.6,29.1-17.4,43.6-26.3c1.6-1,0.1-3.6-1.5-2.6c-61.8,38.1-123.4,75.3-193.2,97.3c-68.1,21.4-140.6,31-211.9,25.9
			c-71.5-5.2-140.8-23.8-206-53.6c-60-27.4-114-71.2-180.3-82.7c-126.2-21.8-220,79.8-316.4,142.1c-28.3,18.3-58.4,34.3-90.8,43.9
			c-35.2,10.4-72.9,13.2-109.4,11.7c-37.5-1.5-73.8-8.7-109.2-20.8c-18.4-6.3-34.9-14.6-50.2-26.6c-12.5-9.8-22.6-21.8-34.4-32.3
			c-23.1-20.6-44.3-41-74.3-51.7c-30.6-10.8-64.8-10.9-96.9-11.6c-33.8-0.7-67.8,0.9-101.2,6.2c-34.7,5.5-67.4,16.5-100.1,28.7
			c-15,5.6-29.2,15.8-42.6,24.5C-0.6,806.1,0.9,808.7,2.5,807.7L2.5,807.7z"/>
	</g>
</g>
<g>
	<g>
		<path d="M1.3,761.9c17.7-6.3,34.6-13.8,52.8-18.3c19.7-4.9,40.2-9,60.5-10.4c38.7-2.7,76.9,3,115.1,7.5
			c68.6,8,140.8,25.4,188.2,79.2c21.9,24.9,32.8,60,59.6,80.4c26.5,20.2,58.6,27.6,91.3,20.2c64.1-14.5,107.8-63.4,139.8-118.1
			c36.1-61.7,73.7-135.3,145.7-160.8c35.3-12.5,73.8-7.3,106.8,9.7c14,7.3,25.1,18.2,38,26.6c15.1,9.9,29,22.8,43.3,33.8
			c29.8,22.9,59.9,44,93.3,61.4c32.3,16.8,67,30,101.7,40.7c35.1,10.7,69.5,19.6,106.1,23.4c37.7,3.9,76.1,4.9,113.8,0.2
			c72.3-9.2,138-39,202-72.1c31.9-16.5,63.8-35.7,97.3-48.6c18.2-7,36.3-14.7,54.8-21.1c18-6.3,36.1-11.1,54.6-15.9
			c8.9-2.3,17.4-5.9,26.4-7.9c9-2,18.2-3.2,27.1-5.3c1.9-0.4,1.1-3.3-0.8-2.9c-9,2.1-18.1,3.3-27.1,5.3c-9,2-17.5,5.6-26.4,7.9
			c-18.5,4.8-36.5,9.6-54.6,15.9c-33.8,11.8-66.5,25.9-98.5,41.9c-66.3,33.4-130.7,71.4-203.4,89.4c-74.7,18.6-156.4,18.6-231.1-1.1
			c-73.8-19.5-144.4-49-206.8-93.1c-28.8-20.4-56.1-43.5-83.7-65.2c-24-18.8-53.2-30.3-83.6-32.8c-70.1-5.9-126,52.4-160.7,106.4
			c-37.7,58.7-65.3,126.8-129.4,162.1c-31.2,17.2-71,27.3-105.4,13.9c-17.7-6.9-34.6-18.6-45.8-34c-10.7-14.8-18.9-31.2-29.3-46.1
			c-37.1-53.6-98.5-78.7-160.6-89.7c-35.5-6.3-71.7-11.6-107.7-13.8c-38-2.3-74.4,0.9-111.3,10.1c-18.2,4.6-35.2,12.1-52.8,18.3
			C-1.3,759.7-0.5,762.6,1.3,761.9L1.3,761.9z"/>
	</g>
</g>
<g>
	<g>
		<path d="M2,701c31-29.2,77.4-42.2,117.6-53.1c42.7-11.5,87.4-19.8,131.8-19.2c44.3,0.6,87.7,15.9,118.2,49.1
			c29.3,31.9,35.6,76,52.1,114.4c14.4,33.6,28.1,66.2,54.2,92.8c25.8,26.3,58.8,44.5,95,51.7c71.4,14.3,147.4-18.8,183.8-82.8
			c18.1-31.9,18.1-68.8,22.6-104.2c5.1-39.7,35.6-70.7,70.4-87.7c82.1-40.3,171.6-5.1,248.7,29.4c41.2,18.4,82.1,37.3,123.2,55.9
			c36.6,16.5,73.5,31.8,109.8,49c17.2,8.2,33.6,16.9,51.4,23.7c21.4,8.2,41.7,18.6,62.3,28.5c32.6,15.6,71.9,34.2,108.9,26.1
			c29.7-6.5,51-30.6,62.7-57.6c8.3-19.1,14.2-39.2,20.5-59c6.5-20.2,11.9-41.2,21.8-60c38.7-73.1,117.1-119.2,195.8-137
			c21.9-5,44.3-8,66.7-8.9c1.9-0.1,1.9-3.1,0-3c-78.8,3.1-161.1,31.7-218.5,87c-27.8,26.7-48.6,58.3-60.5,95
			c-6.5,20-12.5,40.1-19.4,59.9c-6.4,18.4-13,36.7-25.4,51.9c-11.1,13.7-26,24.3-43.3,28.5c-22,5.2-44.8-0.4-65.6-7.6
			c-21.3-7.3-41.3-17.5-61.5-27.2c-18.9-9.1-38.1-16.4-57.5-24.3c-9.2-3.8-17.9-9.5-27-13.8c-10.4-4.9-20.8-9.9-31.2-14.7
			c-17.2-7.9-34.6-14.4-51.7-22.3c-40.3-18.5-80.9-36.5-121.2-55c-72.8-33.4-151.8-74.8-234.5-63.6c-35.9,4.8-71.2,19.8-96.9,45.9
			c-11.4,11.6-20.7,25.4-26.2,40.7c-5.9,16.5-6.1,34.4-7.9,51.6c-2.1,19.5-5,39.2-12.4,57.5c-7.7,19.2-20.9,35.8-35.6,50.1
			c-29.5,28.6-68,46.8-109.3,48.5c-42.2,1.7-84.3-12-117.5-38c-16.2-12.7-30.5-28.2-41.8-45.5c-10.1-15.5-17-32.2-23.6-49.2
			c-4-10.2-9.2-19.7-12.7-30.1c-3.4-10-6.4-20.1-10-30c-6.7-18.8-14.4-37.5-25.5-54.2c-20.4-30.8-54.5-51.7-90.1-60
			c-40.3-9.4-84.2-4-124.4,3.4c-41.3,7.6-82.3,19.2-120.9,35.7c-17.3,7.4-33.7,16.5-47.5,29.4C-1.5,700.2,0.6,702.4,2,701L2,701z"/>
	</g>
</g>
<g>
	<g>
		<path d="M1.7,763c30.5-26.8,71.7-45.1,110.3-56.4c40-11.7,81.6-14.3,122.9-9.3c41.9,5.1,82.8,21.9,117,46.5
			c32.2,23.1,51.4,56.9,72.8,89.4c10.2,15.5,21.1,30.6,33.8,44.2c6.8,7.3,14.4,13.5,21.6,20.3c5.5,5.2,12.4,9.1,18.9,13.2
			c6.9,4.3,13.3,7.9,19.7,12.9c5.8,4.6,12.8,7,19.7,9.5c16.8,6.2,34.2,12.1,51.8,15.4c73.8,13.9,155.1-7.9,211.8-57.3
			c6.6-5.8,13.4-10.4,19.6-16.6c7-6.9,13.6-14.2,19.9-21.7c12.1-14.5,23.1-30.1,32.6-46.5c20.5-35.7,30.4-76.3,51.9-111.6
			c9.7-15.9,20.3-32.5,35.1-44.1c15.9-12.4,34.3-24.3,53.4-30.8c39.6-13.5,85.4-15.9,125-0.5c40.9,15.9,67.9,49.3,94.9,82.1
			c25.4,30.9,53.1,59.7,88.3,79.2c17.3,9.6,35.1,19,53.3,26.6c9.1,3.7,18.7,6.1,27.7,10c8.9,3.9,17.7,7.7,27,10.6
			c32.4,10.3,65.8,18.4,99.9,21.6c34.3,3.3,69.6,0.8,101.7-12.6c13.8-5.8,30.9-13.8,41.3-25c5.2-5.5,9.1-13.2,13.6-19.3
			c5.9-8.2,11.8-16.4,17.1-25.1c19-31.5,24.1-69.3,50.1-97.1c29.4-31.4,69.1-40.9,110.5-44.5c18.4-1.6,36.3-4.6,54.8-4.8
			c1.9,0,1.9-3,0-3c-19.1,0.2-37.5,3.2-56.5,4.9c-18.4,1.7-36.9,4.1-54.5,9.7c-33.5,10.7-60.6,33.7-76.9,64.8
			c-8.2,15.7-14,32.4-20.2,48.9c-6.7,17.8-19,33.3-30,48.6c-6.2,8.5-11.5,16-20.1,22.2c-7.7,5.5-16.1,10.3-24.7,14.3
			c-18.1,8.4-37.8,13.3-57.6,15.2c-37.1,3.5-74.4-2.6-110.4-11.2c-16.7-4-33.9-8.9-50-15.2c-9.5-3.7-18.5-7.6-28.1-11
			c-10.3-3.6-20.3-7.8-30.1-12.6c-18.7-9.1-37-19-54.6-30.1c-17.8-11.3-33.9-27-48.2-42.4c-27.5-29.7-49-65.2-82.7-88.8
			c-31.6-22.1-70.3-32.1-108.7-29.3c-39,2.8-73.3,16.8-104.5,40c-28.1,20.9-45.8,56.5-59.1,88.1c-8.1,19.3-15.2,39-24.5,57.8
			c-9.5,19-21.5,37-34.8,53.6C793,909.3,716.3,949.7,634.4,949.8c-20.9,0-41.6-2.6-61.4-9c-17.4-5.6-40.2-8.1-54.2-20.9
			c-6.3-5.7-13.7-8.7-20.9-13.4c-8-5.2-14.8-10.7-22-16.8c-15.2-12.7-28.4-28.7-39.7-45c-21.5-31.3-39.3-65.3-67.5-91.4
			c-13.3-12.3-29.2-21.4-45-30.3c-15.8-9-33.4-16.1-50.9-21.3c-75.3-22.6-157.7-7.2-226.2,28.3c-16.5,8.6-33.1,18.5-47.1,30.8
			C-1.8,762.1,0.3,764.3,1.7,763L1.7,763z"/>
	</g>
</g>
<g>
	<g>
		<path d="M1.7,724.3C29.4,703,60.5,687,92.2,672.4c34.4-15.8,71.3-27.3,109.2-30.3c75.4-6,147,21.9,210.4,60.4
			c120.7,73.3,222.9,193,369.7,212.6c64.2,8.6,134.8-3.7,183.8-48.6c24.3-22.3,40.5-51.3,58.3-78.7c19.2-29.6,42.1-57.2,70.9-78
			c60.5-43.8,137.8-55.5,209.3-36.3c34.4,9.3,68,22.1,103.6,26.5c35,4.3,70.8,0.7,104.6-8.9c137.6-39,227.2-163.7,290-284.4
			c8.4-16.1,16.5-32.4,24.4-48.8c0.8-1.7-1.7-3.3-2.6-1.5c-62,127.8-142.3,264-280.1,320.5c-34,14-70.6,21.9-107.5,21.8
			c-37.7-0.1-73.2-10.8-108.9-21.6c-34.3-10.3-68.3-17.8-104.3-15.7c-32.9,1.9-65.3,10.3-94.9,24.8c-29.5,14.4-55.3,34.8-76.9,59.5
			c-21.1,24.3-36.7,52-54.6,78.5c-19.8,29.1-43.9,53.2-75.8,68.7c-32.9,16-69.9,22.3-106.3,21.7c-153.5-2.8-262.3-125-382.5-203
			c-57.9-37.5-121.8-68.2-191.6-72.8c-70-4.6-136.3,20.8-196.5,54.3c-15.2,8.5-29.9,17.9-43.7,28.6C-1.3,722.9,0.2,725.5,1.7,724.3
			L1.7,724.3z"/>
	</g>
</g>
<g>
	<g>
		<path d="M1.1,759.6c49-18.2,100.4-29.1,152.4-33.2c52.5-4.2,106.1-2.8,157.8,7.1c26,5,51.7,12.3,77,19.8
			c12.8,3.8,25.2,8.7,38,12.5c12.3,3.7,24.2,8.2,36.2,12.8c48.6,18.6,96.4,39.1,145.5,56.2c48.2,16.8,98.1,28.9,149,33.8
			c27.1,2.6,54.4,2.9,81.6,3c13.3,0,26.6-0.3,39.8-0.7c12.9-0.4,25.7-2.9,38.6-3.5c47.9-2.5,96.6-9,140.2-30.5
			c43.4-21.4,78.8-55.2,112.4-89.3c17.4-17.6,34.1-35.8,50.5-54.3c8.3-9.4,16.5-18.9,24.6-28.5c4.1-4.9,8.2-9.8,12.3-14.7
			c3.7-4.4,8-7.8,11.5-12.3c32.4-41.3,65.8-81.9,96.9-124.2c7.8-10.7,15.5-21.4,23-32.3c1.1-1.6-1.5-3.1-2.6-1.5
			c-30.1,43.9-63.5,85.4-96.6,127.1c-31,39-63.7,77-97.7,113.5c-33.6,36.1-68.9,73.1-110.7,99.7c-42.1,26.8-90.3,38.6-139.7,42.9
			c-12.8,1.1-25.6,0.9-38.3,2.4c-12.9,1.5-25.6,2.3-38.7,2.7c-26.6,0.7-53.2,0.6-79.8-0.7c-52.4-2.5-104.4-12.2-154.3-28.4
			c-49.2-15.9-96.8-35.9-144.9-54.9c-48.5-19.1-97.9-35.4-148.5-48.1c-49.6-12.5-101.3-16-152.3-14.3c-49.8,1.6-99.5,8.9-147.3,22.9
			c-12.4,3.6-24.6,7.7-36.7,12.2C-1.5,757.4-0.7,760.3,1.1,759.6L1.1,759.6z"/>
	</g>
</g>
<g>
	<g>
		<path d="M959.2-493.8c51.6-32.6,114.5-44.4,174.7-34.5c62.9,10.4,116.1,48.7,176,68.6c62.3,20.7,131.6,13.5,193.9-3.5
			c65.5-17.8,128.1-46.4,191-71.6c15.2-6.1,30.5-11.9,46-17c14.3-4.7,30.4-7.1,43.9-13.2c7.4-3.4,16.5-3.9,24.5-5.6
			c8.6-1.9,17.2-3.9,25.9-5.3c17.9-3,36.5-4.3,54.7-3.6c68.4,2.6,131.1,28.2,192.4,56.4c16,7.3,31.9,14.8,47.8,22.4
			c14.2,6.8,29.4,10.7,44,16.6c15.4,6.2,31.1,16.1,47.3,19.9c16.5,3.9,32.6,9.4,49,13.6c63.2,16.2,130.6,18.8,194.9,7.7
			c16.4-2.8,33.3-6.2,49.1-11.7c14.4-5,29.1-8.8,43.7-13.4c16.2-5,32.1-10.9,47.7-17.4c15.1-6.3,30.4-11.6,45.5-17.6
			c62.6-25.1,122.2-57.2,184.7-82.5c13.6-5.5,27.4-12.4,41.4-16.6c1.8-0.6,1.1-3.5-0.8-2.9c-14.2,4.3-27.8,11.1-41.4,16.6
			c-15.3,6.2-30.1,12.8-45.1,19.9c-31.3,14.7-62.8,28.6-94.2,42.8c-30.5,13.8-61.8,25.3-92.6,38.1c-29.8,12.4-61,20.7-91.6,30.6
			c-65.1,21.1-140,22.8-207,10.8c-17.3-3.1-34.4-7.2-51.2-12.2c-17.1-5.1-34.3-9.2-50.6-16.5c-14.2-6.3-28.5-12.6-43.2-17.8
			c-18-6.4-34.9-13.8-52.3-21.9c-57.6-26.9-117.1-56.2-181-64.5c-32.5-4.2-65.2-4.9-97.5,1.2c-31.5,6-62,14-92.5,24.3
			c-127.4,43-256.4,124.9-396.4,98.6c-64.5-12.1-117.5-53.6-180-70.6c-54.7-14.9-114.5-11.5-166.8,10.5
			c-12.5,5.2-24.4,11.5-35.8,18.8C956-495.4,957.5-492.8,959.2-493.8L959.2-493.8z"/>
	</g>
</g>
<g>
	<g>
		<path d="M960.5-451.3c15-9.8,30.1-19.5,47-25.3c17.4-5.9,33.8-13.5,51.6-18.4c34.5-9.4,70.3-13.9,106-15.2
			c35-1.2,71.7-1.1,106.3,4.4c34.3,5.4,63.3,22.3,87.7,46.5c21.6,21.3,43.7,44.7,70.6,59.4c29.4,16,65,24.5,97.9,29
			c67.9,9.3,137.8,3.1,199.6-27.9c107.8-54.1,194.5-169.9,324.5-169.1c72.2,0.4,128.5,44.4,190.2,75.1
			c60.1,29.9,124.2,51.2,190.8,60.4c69.1,9.5,139.8,5.4,207.7-10.5c32.9-7.7,65.2-18.2,96.3-31.4c33.9-14.4,65.1-32.9,96.8-51.5
			c14.7-8.6,29.1-17.4,43.6-26.3c1.6-1,0.1-3.6-1.5-2.6c-61.8,38.1-123.4,75.3-193.2,97.3c-68.1,21.4-140.6,31-211.9,25.9
			c-71.5-5.2-140.8-23.8-206-53.6c-60-27.4-114-71.2-180.3-82.7c-126.2-21.8-220,79.8-316.4,142.1c-28.3,18.3-58.4,34.3-90.8,43.9
			c-35.2,10.4-72.9,13.2-109.4,11.7c-37.5-1.5-73.8-8.7-109.2-20.8c-18.4-6.3-34.9-14.6-50.2-26.6c-12.5-9.8-22.6-21.8-34.4-32.3
			c-23.1-20.6-44.3-41-74.3-51.7c-30.6-10.8-64.8-10.9-96.9-11.6c-33.8-0.7-67.8,0.9-101.2,6.2c-34.7,5.5-67.4,16.5-100.1,28.7
			c-15,5.6-29.2,15.8-42.6,24.5C957.4-452.9,958.9-450.3,960.5-451.3L960.5-451.3z"/>
	</g>
</g>
<g>
	<g>
		<path d="M959.3-497.1c17.7-6.3,34.6-13.8,52.8-18.3c19.7-4.9,40.2-9,60.5-10.4c38.7-2.7,76.9,3,115.1,7.5
			c68.6,8,140.8,25.4,188.2,79.2c21.9,24.9,32.8,60,59.6,80.4c26.5,20.2,58.6,27.6,91.3,20.2c64.1-14.5,107.8-63.4,139.8-118.1
			c36.1-61.7,73.7-135.3,145.7-160.8c35.3-12.5,73.8-7.3,106.8,9.7c14,7.3,25.1,18.2,38,26.6c15.1,9.9,29,22.8,43.3,33.8
			c29.8,22.9,59.9,44,93.3,61.4c32.3,16.8,67,30,101.7,40.7c35.1,10.7,69.5,19.6,106.1,23.4c37.7,3.9,76.1,4.9,113.8,0.2
			c72.3-9.2,138-39,202-72.1c31.9-16.5,63.8-35.7,97.3-48.6c18.2-7,36.3-14.7,54.8-21.1c18-6.3,36.1-11.1,54.6-15.9
			c8.9-2.3,17.4-5.9,26.4-7.9c9-2,18.2-3.2,27.1-5.3c1.9-0.4,1.1-3.3-0.8-2.9c-9,2.1-18.1,3.3-27.1,5.3c-9,2-17.5,5.6-26.4,7.9
			c-18.5,4.8-36.5,9.6-54.6,15.9c-33.8,11.8-66.5,25.9-98.5,41.9c-66.3,33.4-130.7,71.4-203.4,89.4c-74.7,18.6-156.4,18.6-231.1-1.1
			c-73.8-19.5-144.4-49-206.8-93.1c-28.8-20.4-56.1-43.5-83.7-65.2c-24-18.8-53.2-30.3-83.6-32.8c-70.1-5.9-126,52.4-160.7,106.4
			c-37.7,58.7-65.3,126.8-129.4,162.1c-31.2,17.2-71,27.3-105.4,13.9c-17.7-6.9-34.6-18.6-45.8-34c-10.7-14.8-18.9-31.2-29.3-46.1
			c-37.1-53.6-98.5-78.7-160.6-89.7c-35.5-6.3-71.7-11.6-107.7-13.8c-38-2.3-74.4,0.9-111.3,10.1c-18.2,4.6-35.2,12.1-52.8,18.3
			C956.7-499.3,957.5-496.4,959.3-497.1L959.3-497.1z"/>
	</g>
</g>
<g>
	<g>
		<path d="M960-558c31-29.2,77.4-42.2,117.6-53.1c42.7-11.5,87.4-19.8,131.8-19.2c44.3,0.6,87.7,15.9,118.2,49.1
			c29.3,31.9,35.6,76,52.1,114.4c14.4,33.6,28.1,66.2,54.2,92.8c25.8,26.3,58.8,44.5,95,51.7c71.4,14.3,147.4-18.8,183.8-82.8
			c18.1-31.9,18.1-68.8,22.6-104.2c5.1-39.7,35.6-70.7,70.4-87.7c82.1-40.3,171.6-5.1,248.7,29.4c41.2,18.4,82.1,37.3,123.2,55.9
			c36.6,16.5,73.5,31.8,109.8,49c17.2,8.2,33.6,16.9,51.4,23.7c21.4,8.2,41.7,18.6,62.3,28.5c32.6,15.6,71.9,34.2,108.9,26.1
			c29.7-6.5,51-30.6,62.7-57.6c8.3-19.1,14.2-39.2,20.5-59c6.5-20.2,11.9-41.2,21.8-60c38.7-73.1,117.1-119.2,195.8-137
			c21.9-5,44.3-8,66.7-8.9c1.9-0.1,1.9-3.1,0-3c-78.8,3.1-161.1,31.7-218.5,87c-27.8,26.7-48.6,58.3-60.5,95
			c-6.5,20-12.5,40.1-19.4,59.9c-6.4,18.4-13,36.7-25.4,51.9c-11.1,13.7-26,24.3-43.3,28.5c-22,5.2-44.8-0.4-65.6-7.6
			c-21.3-7.3-41.3-17.5-61.5-27.2c-18.9-9.1-38.1-16.4-57.5-24.3c-9.2-3.8-17.9-9.5-27-13.8c-10.4-4.9-20.8-9.9-31.2-14.7
			c-17.2-7.9-34.6-14.4-51.7-22.3c-40.3-18.5-80.9-36.5-121.2-55c-72.8-33.4-151.8-74.8-234.5-63.6c-35.9,4.8-71.2,19.8-96.9,45.9
			c-11.4,11.6-20.7,25.4-26.2,40.7c-5.9,16.5-6.1,34.4-7.9,51.6c-2.1,19.5-5,39.2-12.4,57.5c-7.7,19.2-20.9,35.8-35.6,50.1
			c-29.5,28.6-68,46.8-109.3,48.5c-42.2,1.7-84.3-12-117.5-38c-16.2-12.7-30.5-28.2-41.8-45.5c-10.1-15.5-17-32.2-23.6-49.2
			c-4-10.2-9.2-19.7-12.7-30.1c-3.4-10-6.4-20.1-10-30c-6.7-18.8-14.4-37.5-25.5-54.2c-20.4-30.8-54.5-51.7-90.1-60
			c-40.3-9.4-84.2-4-124.4,3.4c-41.3,7.6-82.3,19.2-120.9,35.7c-17.3,7.4-33.7,16.5-47.5,29.4C956.5-558.8,958.6-556.6,960-558
			L960-558z"/>
	</g>
</g>
<g>
	<g>
		<path d="M959.7-496c30.5-26.8,71.7-45.1,110.3-56.4c40-11.7,81.6-14.3,122.9-9.3c41.9,5.1,82.8,21.9,117,46.5
			c32.2,23.1,51.4,56.9,72.8,89.4c10.2,15.5,21.1,30.6,33.8,44.2c6.8,7.3,14.4,13.5,21.6,20.3c5.5,5.2,12.4,9.1,18.9,13.2
			c6.9,4.3,13.3,7.9,19.7,12.9c5.8,4.6,12.8,7,19.7,9.5c16.8,6.2,34.2,12.1,51.8,15.4c73.8,13.9,155.1-7.9,211.8-57.3
			c6.6-5.8,13.4-10.4,19.6-16.6c7-6.9,13.6-14.2,19.9-21.7c12.1-14.5,23.1-30.1,32.6-46.5c20.5-35.7,30.4-76.3,51.9-111.6
			c9.7-15.9,20.3-32.5,35.1-44.1c15.9-12.4,34.3-24.3,53.4-30.8c39.6-13.5,85.4-15.9,125-0.5c40.9,15.9,67.9,49.3,94.9,82.1
			c25.4,30.9,53.1,59.7,88.3,79.2c17.3,9.6,35.1,19,53.3,26.6c9.1,3.7,18.7,6.1,27.7,10c8.9,3.9,17.7,7.7,27,10.6
			c32.4,10.3,65.8,18.4,99.9,21.6c34.3,3.3,69.6,0.8,101.7-12.6c13.8-5.8,30.9-13.8,41.3-25c5.2-5.5,9.1-13.2,13.6-19.3
			c5.9-8.2,11.8-16.4,17.1-25.1c19-31.5,24.1-69.3,50.1-97.1c29.4-31.4,69.1-40.9,110.5-44.5c18.4-1.6,36.3-4.6,54.8-4.8
			c1.9,0,1.9-3,0-3c-19.1,0.2-37.5,3.2-56.5,4.9c-18.4,1.7-36.9,4.1-54.5,9.7c-33.5,10.7-60.6,33.7-76.9,64.8
			c-8.2,15.7-14,32.4-20.2,48.9c-6.7,17.8-19,33.3-30,48.6c-6.2,8.5-11.5,16-20.1,22.2c-7.7,5.5-16.1,10.3-24.7,14.3
			c-18.1,8.4-37.8,13.3-57.6,15.2c-37.1,3.5-74.4-2.6-110.4-11.2c-16.7-4-33.9-8.9-50-15.2c-9.5-3.7-18.5-7.6-28.1-11
			c-10.3-3.6-20.3-7.8-30.1-12.6c-18.7-9.1-37-19-54.6-30.1c-17.8-11.3-33.9-27-48.2-42.4c-27.5-29.7-49-65.2-82.7-88.8
			c-31.6-22.1-70.3-32.1-108.7-29.3c-39,2.8-73.3,16.8-104.5,40c-28.1,20.9-45.8,56.5-59.1,88.1c-8.1,19.3-15.2,39-24.5,57.8
			c-9.5,19-21.5,37-34.8,53.6c-50.6,63.4-127.3,103.8-209.1,103.9c-20.9,0-41.6-2.6-61.4-9c-17.4-5.6-40.2-8.1-54.2-20.9
			c-6.3-5.7-13.7-8.7-20.9-13.4c-8-5.2-14.8-10.7-22-16.8c-15.2-12.7-28.4-28.7-39.7-45c-21.5-31.3-39.3-65.3-67.5-91.4
			c-13.3-12.3-29.2-21.4-45-30.3c-15.8-9-33.4-16.1-50.9-21.3c-75.3-22.6-157.7-7.2-226.2,28.3c-16.5,8.6-33.1,18.5-47.1,30.8
			C956.2-496.9,958.3-494.7,959.7-496L959.7-496z"/>
	</g>
</g>
<g>
	<g>
		<path d="M959.7-534.7c27.7-21.4,58.8-37.4,90.5-51.9c34.4-15.8,71.3-27.3,109.2-30.3c75.4-6,147,21.9,210.4,60.4
			c120.7,73.3,222.9,193,369.7,212.6c64.2,8.6,134.8-3.7,183.8-48.6c24.3-22.3,40.5-51.3,58.3-78.7c19.2-29.6,42.1-57.2,70.9-78
			c60.5-43.8,137.8-55.5,209.3-36.3c34.4,9.3,68,22.1,103.6,26.5c35,4.3,70.8,0.7,104.6-8.9c137.6-39,227.2-163.7,290-284.4
			c8.4-16.1,16.5-32.4,24.4-48.8c0.8-1.7-1.7-3.3-2.6-1.5c-62,127.8-142.3,264-280.1,320.5c-34,14-70.6,21.9-107.5,21.8
			c-37.7-0.1-73.2-10.8-108.9-21.6c-34.3-10.3-68.3-17.8-104.3-15.7c-32.9,1.9-65.3,10.3-94.9,24.8c-29.5,14.4-55.3,34.8-76.9,59.5
			c-21.1,24.3-36.7,52-54.6,78.5c-19.8,29.1-43.9,53.2-75.8,68.7c-32.9,16-69.9,22.3-106.3,21.7c-153.5-2.8-262.3-125-382.5-203
			c-57.9-37.5-121.8-68.2-191.6-72.8c-70-4.6-136.3,20.8-196.5,54.3c-15.2,8.5-29.9,17.9-43.7,28.6
			C956.7-536.1,958.2-533.5,959.7-534.7L959.7-534.7z"/>
	</g>
</g>
<g>
	<g>
		<path d="M959.1-499.4c49-18.2,100.4-29.1,152.4-33.2c52.5-4.2,106.1-2.8,157.8,7.1c26,5,51.7,12.3,77,19.8
			c12.8,3.8,25.2,8.7,38,12.5c12.3,3.7,24.2,8.2,36.2,12.8c48.6,18.6,96.4,39.1,145.5,56.2c48.2,16.8,98.1,28.9,149,33.8
			c27.1,2.6,54.4,2.9,81.6,3c13.3,0,26.6-0.3,39.8-0.7c12.9-0.4,25.7-2.9,38.6-3.5c47.9-2.5,96.6-9,140.2-30.5
			c43.4-21.4,78.8-55.2,112.4-89.3c17.4-17.6,34.1-35.8,50.5-54.3c8.3-9.4,16.5-18.9,24.6-28.5c4.1-4.9,8.2-9.8,12.3-14.7
			c3.7-4.4,8-7.8,11.5-12.3c32.4-41.3,65.8-81.9,96.9-124.2c7.8-10.7,15.5-21.4,23-32.3c1.1-1.6-1.5-3.1-2.6-1.5
			c-30.1,43.9-63.5,85.4-96.6,127.1c-31,39-63.7,77-97.7,113.5c-33.6,36.1-68.9,73.1-110.7,99.7c-42.1,26.8-90.3,38.6-139.7,42.9
			c-12.8,1.1-25.6,0.9-38.3,2.4c-12.9,1.5-25.6,2.3-38.7,2.7c-26.6,0.7-53.2,0.6-79.8-0.7c-52.4-2.5-104.4-12.2-154.3-28.4
			c-49.2-15.9-96.8-35.9-144.9-54.9c-48.5-19.1-97.9-35.4-148.5-48.1c-49.6-12.5-101.3-16-152.3-14.3c-49.8,1.6-99.5,8.9-147.3,22.9
			c-12.4,3.6-24.6,7.7-36.7,12.2C956.5-501.6,957.3-498.7,959.1-499.4L959.1-499.4z"/>
	</g>
</g>
</svg>
