<?xml version="1.0" encoding="utf-8"?>
<!-- Svg Vector Icons : http://www.onlinewebfonts.com/icon -->
<!DOCTYPE svg PUBLIC "-//W3C//DTD SVG 1.1//EN" "http://www.w3.org/Graphics/SVG/1.1/DTD/svg11.dtd">
<svg version="1.1" xmlns="http://www.w3.org/2000/svg" xmlns:xlink="http://www.w3.org/1999/xlink" x="0px" y="0px" viewBox="0 0 1000 1000" enable-background="new 0 0 1000 1000" xml:space="preserve">
<metadata> Svg Vector Icons : http://www.onlinewebfonts.com/icon </metadata>
<g><path d="M66.2,101.1"/><path d="M931,93.3C794.6,52.7,671.2,28.2,504.6,10c-81.8,4.2-158.3,14.1-229.1,30.2c-70.8,16.1-138,33.9-201,53.1c0,519.2-50.3,648.4,364.5,875.8c49.7,27.2,79.7,28.2,131.2,0.5C985.8,746.3,932.1,638.5,931,93.3z M367,567.4c-9.1,16.4-21.6,28.8-37.3,37.4c-15.7,8.5-34.6,12.8-56.8,12.8c-34.5,0-62.1-10.6-82.6-31.8c-20.5-21.2-31.2-50-31.9-86.2l34.8-3.8c1.9,19.2,6.1,34.1,12.7,44.8c6.6,10.7,16,19.3,28.2,25.8c12.2,6.5,26,9.7,41.3,9.7c22,0,39.1-5.5,51.2-16.5c12.2-11,18.2-25.2,18.2-42.8c0-10.3-2.2-19.2-6.6-26.9c-4.4-7.7-11.1-13.9-20-18.8c-8.9-4.9-28.1-11.8-57.7-20.8c-26.3-8-45.1-16-56.2-24.1c-11.1-8.1-19.8-18.3-26-30.8c-6.2-12.4-9.3-26.5-9.3-42.2c0-28.2,8.9-51.2,26.7-69.1c17.8-17.9,41.8-26.8,72-26.8c20.7,0,38.9,4.2,54.5,12.6c15.6,8.4,27.6,20.4,36.2,36.1c8.6,15.7,13.2,34.1,13.8,55.3l-35.5,3.3c-1.9-22.6-8.5-39.4-19.9-50.4c-11.4-10.9-27.4-16.4-48-16.4c-20.9,0-36.9,4.8-47.8,14.4c-11,9.6-16.5,22-16.5,37.2c0,14.1,4,25,12.1,32.8c8.1,7.8,26.2,15.6,54.3,23.6c27.5,7.8,46.9,14.6,58,20.3c17,8.9,29.9,20.6,38.6,35.1c8.7,14.5,13,31.8,13,51.8C380.7,532.9,376.1,551,367,567.4z M627.1,567.4c-9.1,16.4-21.6,28.8-37.3,37.4c-15.7,8.5-34.6,12.8-56.8,12.8c-34.5,0-62.1-10.6-82.6-31.8c-20.5-21.2-31.2-50-31.9-86.2l34.8-3.8c1.9,19.2,6.1,34.1,12.7,44.8c6.6,10.7,16,19.3,28.2,25.8c12.2,6.5,26,9.7,41.3,9.7c22,0,39.1-5.5,51.2-16.5c12.2-11,18.2-25.2,18.2-42.8c0-10.3-2.2-19.2-6.6-26.9c-4.4-7.7-11.1-13.9-20-18.8c-8.9-4.9-28.1-11.8-57.7-20.8c-26.3-8-45.1-16-56.2-24.1s-19.8-18.3-26-30.8c-6.2-12.4-9.3-26.5-9.3-42.2c0-28.2,8.9-51.2,26.7-69.1c17.8-17.9,41.8-26.8,72-26.8c20.7,0,38.9,4.2,54.5,12.6c15.6,8.4,27.6,20.4,36.2,36.1c8.6,15.7,13.2,34.1,13.8,55.3l-35.5,3.3c-1.9-22.6-8.5-39.4-19.9-50.4c-11.4-10.9-27.4-16.4-48-16.4c-20.9,0-36.9,4.8-47.8,14.4c-11,9.6-16.5,22-16.5,37.2c0,14.1,4,25,12.1,32.8c8,7.8,26.2,15.6,54.3,23.6c27.5,7.8,46.9,14.6,58,20.3c17,8.9,29.9,20.6,38.6,35.1c8.7,14.5,13,31.8,13,51.8C640.8,532.9,636.2,551,627.1,567.4z M863.3,611.6H688.9V263.4h36.9v307.1h137.5V611.6z"/></g>
</svg>